<?xml version="1.0" standalone="no"?>
<!DOCTYPE svg PUBLIC "-//W3C//DTD SVG 20010904//EN"
 "http://www.w3.org/TR/2001/REC-SVG-20010904/DTD/svg10.dtd">
<svg version="1.0" xmlns="http://www.w3.org/2000/svg"
 width="272.000000pt" height="272.000000pt" viewBox="0 0 272.000000 272.000000"
 preserveAspectRatio="xMidYMid meet">
<metadata>
Created by potrace 1.14, written by Peter Selinger 2001-2017
</metadata>
<g transform="translate(0.000000,272.000000) scale(0.100000,-0.100000)"
fill="#000000" stroke="none">
<path d="M765 2630 c-105 -7 -158 -59 -157 -152 1 -50 16 -74 117 -178 102
-105 137 -142 350 -365 351 -368 400 -415 428 -416 15 -1 33 -2 40 -3 34 -6
87 33 195 145 64 67 140 145 167 174 58 60 371 386 474 494 44 46 75 89 82
112 21 70 -9 142 -73 175 -26 13 -127 15 -791 17 -419 1 -793 0 -832 -3z"/>
<path d="M430 2330 c-42 -12 -70 -33 -93 -70 l-21 -34 0 -851 c0 -773 2 -853
17 -882 28 -54 85 -79 166 -74 17 1 76 54 204 184 99 100 286 290 417 423 131
132 248 256 259 275 26 43 27 104 2 146 -11 17 -137 150 -279 295 -143 144
-327 331 -409 414 -175 178 -197 193 -263 174z"/>
<path d="M1525 1233 c-48 -9 -77 -29 -131 -87 -31 -33 -118 -126 -193 -205
-75 -79 -149 -158 -166 -176 -16 -17 -88 -94 -160 -170 -71 -76 -154 -164
-183 -194 -65 -69 -83 -101 -84 -152 -1 -51 25 -99 68 -128 l34 -23 825 0
c786 0 826 1 856 18 45 27 70 65 76 116 6 56 -12 94 -81 167 -28 29 -64 68
-81 85 -16 18 -93 100 -171 182 -78 82 -177 187 -220 233 -43 47 -97 103 -119
126 -22 23 -67 71 -100 106 -34 35 -68 70 -77 77 -21 17 -68 29 -93 25z"/>
</g>
</svg>
