<svg xmlns="http://www.w3.org/2000/svg" version="1.1" xmlns:xlink="http://www.w3.org/1999/xlink" xmlns:svgjs="http://svgjs.com/svgjs" width="512" height="512" x="0" y="0" viewBox="0 0 32 32" style="enable-background:new 0 0 512 512" xml:space="preserve" class=""><g><path d="M28 7h-6V6c0-1.7-1.4-3-3-3h-6c-1.6 0-3 1.3-3 3v1H4c-1.7 0-3 1.4-3 3v16c0 1.6 1.3 3 3 3h24c1.6 0 3-1.4 3-3V10c0-1.6-1.4-3-3-3zM12 6c0-.6.4-1 1-1h6c.5 0 1 .4 1 1v1h-8zM4 9h24c.5 0 1 .4 1 1v3.2l-10.6 3C17.9 15.5 17 15 16 15s-1.9.5-2.4 1.3L3 13.2V10c0-.6.5-1 1-1zm13 9c0 .5-.5 1-1 1s-1-.5-1-1 .4-1 1-1c.5 0 1 .5 1 1zm11 9H4c-.5 0-1-.5-1-1V15.3l10 2.9c.1 1.6 1.4 2.8 3 2.8s2.9-1.2 3-2.8l10-2.9V26c0 .5-.5 1-1 1z" fill="#858585" data-original="#000000" class=""></path></g></svg>