<svg width="436" height="127" viewBox="0 0 436 127" fill="none" xmlns="http://www.w3.org/2000/svg">
<g clip-path="url(#clip0_302_1255)">
<path d="M97.0078 99.1872C97.0078 99.3054 97.0548 99.4188 97.1383 99.5024C97.2219 99.5859 97.3353 99.6329 97.4534 99.6329H109.151C109.21 99.6351 109.269 99.6251 109.324 99.6035C109.379 99.5819 109.43 99.5491 109.471 99.5073C109.513 99.4655 109.546 99.4155 109.568 99.3604C109.589 99.3053 109.599 99.2464 109.597 99.1872V72.8154L133.152 99.4896C133.194 99.5365 133.245 99.5736 133.303 99.5984C133.361 99.6231 133.423 99.6349 133.486 99.6329H148.208C148.295 99.6342 148.381 99.61 148.454 99.5631C148.528 99.5162 148.586 99.4487 148.621 99.3691C148.657 99.2894 148.668 99.2011 148.654 99.115C148.64 99.029 148.601 98.9489 148.542 98.8848L120.913 68.0726L146.648 42.4329C146.79 42.3094 146.891 42.1446 146.935 41.9614C146.98 41.7782 146.966 41.5857 146.896 41.4107C146.826 41.2356 146.703 41.0867 146.545 40.9847C146.386 40.8827 146.2 40.8326 146.011 40.8414H132.499C132.38 40.8399 132.262 40.8632 132.152 40.9098C132.043 40.9564 131.944 41.0252 131.863 41.112L109.581 63.5049V19.2919C109.581 19.0541 109.488 18.8257 109.321 18.656C109.154 18.4864 108.928 18.3889 108.69 18.3848H97.9627C97.7221 18.3848 97.4914 18.4803 97.3213 18.6505C97.1511 18.8206 97.0556 19.0513 97.0556 19.2919L97.0078 99.1872Z" fill="#19181B"/>
<path d="M185.418 29.8774C197.88 29.8774 206.777 36.928 206.777 46.8751C206.777 56.8222 197.88 63.7613 185.418 63.7613H169.917C169.8 63.7574 169.689 63.7091 169.606 63.6264C169.523 63.5437 169.475 63.4326 169.471 63.3157V30.3231C169.475 30.2062 169.523 30.0951 169.606 30.0124C169.689 29.9296 169.8 29.8814 169.917 29.8774H185.418ZM187.615 75.3318C206.888 75.3318 220.639 63.4112 220.639 46.8751C220.639 30.339 206.825 18.4502 187.726 18.4502H156.977C156.74 18.4502 156.511 18.5435 156.342 18.7102C156.172 18.8769 156.074 19.1036 156.07 19.3415V99.5073C156.07 99.5672 156.082 99.6265 156.106 99.6816C156.129 99.7367 156.163 99.7866 156.206 99.8282C156.249 99.8698 156.301 99.9023 156.356 99.9237C156.412 99.9451 156.472 99.9551 156.532 99.953H169.025C169.085 99.9552 169.144 99.9452 169.199 99.9236C169.254 99.902 169.304 99.8692 169.346 99.8274C169.387 99.7856 169.42 99.7355 169.442 99.6805C169.463 99.6254 169.473 99.5664 169.471 99.5073V75.7456C169.471 75.6274 169.518 75.5141 169.602 75.4305C169.685 75.347 169.799 75.3 169.917 75.3L187.615 75.3318Z" fill="#19181B"/>
<path d="M366.918 81.9516C366.918 68.6463 352.482 66.2272 341.278 64.3651C331.729 62.7735 327.416 61.357 327.416 56.9644C327.416 52.1898 332.731 48.768 339.082 48.768C347.294 48.768 353.31 52.6036 353.724 58.1421C353.728 58.2618 353.778 58.3751 353.864 58.4583C353.951 58.5414 354.066 58.5878 354.185 58.5878H364.96C365.078 58.5878 365.192 58.5408 365.275 58.4572C365.359 58.3737 365.406 58.2603 365.406 58.1421C365.119 46.699 354.122 38.4707 339.193 38.4707C325.904 38.4707 315.638 46.3329 315.638 57.0917C315.638 71.0814 326.031 72.8161 339.766 74.9011C345.655 75.6968 354.79 77.2088 354.79 83.3362C354.902 88.1108 349.236 91.7714 341.389 91.7714C332.795 91.7714 326.54 86.9013 326.27 80.2009C326.266 80.0813 326.215 79.9679 326.129 79.8848C326.043 79.8016 325.928 79.7552 325.808 79.7553H315.161C315.102 79.753 315.043 79.763 314.988 79.7846C314.933 79.8062 314.883 79.839 314.841 79.8808C314.799 79.9226 314.766 79.9727 314.744 80.0277C314.723 80.0828 314.713 80.1418 314.715 80.2009C314.97 92.9332 326.095 102.069 341.389 102.069C356.286 102.069 366.918 93.6335 366.918 81.9516Z" fill="#19181B"/>
<path d="M404.407 90.7369C393.266 90.7369 385.006 82.063 385.006 70.2697C385.006 58.4764 393.202 49.8025 404.407 49.8025C415.611 49.8025 423.696 58.365 423.696 70.2697C423.696 82.1744 415.611 90.7369 404.407 90.7369ZM425.956 47.2242C419.488 41.3673 410.995 38.2566 402.274 38.5503C396.079 38.5587 390.03 40.4272 384.91 43.9138C379.712 47.7658 375.912 53.2083 374.088 59.4154C373.026 62.941 372.49 66.6037 372.496 70.2856C372.496 88.6679 384.735 101.973 401.956 101.973C406.224 102.028 410.442 101.043 414.243 99.1015C418.045 97.1603 421.317 94.3221 423.776 90.8324V99.1721C423.776 99.2903 423.823 99.4036 423.906 99.4872C423.99 99.5707 424.103 99.6177 424.221 99.6177H436.015C436.074 99.6199 436.133 99.6099 436.188 99.5883C436.243 99.5667 436.293 99.534 436.335 99.4921C436.376 99.4503 436.409 99.4003 436.431 99.3452C436.452 99.2901 436.462 99.2312 436.46 99.1721V77.6704C436.46 74.4873 436.603 71.3042 436.285 68.1211C435.477 60.2307 431.869 52.8907 426.115 47.4311L425.956 47.2242Z" fill="#19181B"/>
<path d="M255.211 90.7388C244.07 90.7388 235.81 82.0649 235.81 70.2716C235.81 58.4782 244.006 49.8043 255.211 49.8043C266.415 49.8043 274.5 58.3668 274.5 70.2716C274.5 82.1763 266.415 90.7388 255.211 90.7388ZM276.712 47.2897C272.763 43.5882 267.912 40.9871 262.643 39.7458C259.413 38.994 256.108 38.6043 252.791 38.584C235.571 38.584 223.332 51.8893 223.332 70.2716C223.332 88.6538 235.571 101.959 252.791 101.959C257.06 102.014 261.277 101.029 265.079 99.0874C268.881 97.1462 272.153 94.3081 274.611 90.8183V99.158C274.611 99.2762 274.658 99.3895 274.742 99.4731C274.826 99.5567 274.939 99.6036 275.057 99.6036H286.755C286.873 99.6036 286.986 99.5567 287.07 99.4731C287.154 99.3895 287.201 99.2762 287.201 99.158V70.2716C287.113 65.9279 286.138 61.648 284.334 57.6956C282.53 53.7432 279.936 50.2019 276.712 47.2897Z" fill="#19181B"/>
<path fill-rule="evenodd" clip-rule="evenodd" d="M296.223 99.6184C296.105 99.6184 295.991 99.5715 295.908 99.4879C295.824 99.4043 295.777 99.291 295.777 99.1728V41.4317C295.777 41.2882 295.834 41.1506 295.936 41.0491C296.037 40.9476 296.175 40.8906 296.318 40.8906H307.714C307.857 40.8906 307.995 40.9476 308.096 41.0491C308.198 41.1506 308.255 41.2882 308.255 41.4317V99.1887C308.255 99.3069 308.208 99.4203 308.124 99.5038C308.041 99.5874 307.928 99.6344 307.809 99.6344L296.223 99.6184Z" fill="#19181B"/>
<path d="M302.019 31.4214C303.046 31.4594 304.07 31.2849 305.027 30.9086C305.984 30.5324 306.852 29.9625 307.578 29.2349C308.305 28.5072 308.873 27.6373 309.247 26.6798C309.621 25.7223 309.794 24.6979 309.754 23.6706C309.754 21.6023 308.932 19.6187 307.469 18.1562C306.007 16.6937 304.023 15.8721 301.955 15.8721C299.887 15.8721 297.903 16.6937 296.441 18.1562C294.978 19.6187 294.156 21.6023 294.156 23.6706C294.122 24.7072 294.303 25.7396 294.688 26.7028C295.072 27.666 295.652 28.5392 296.391 29.2673C297.129 29.9954 298.011 30.5627 298.979 30.9334C299.948 31.3042 300.983 31.4703 302.019 31.4214Z" fill="#19181B"/>
<path d="M302.019 31.4214C303.046 31.4594 304.07 31.2849 305.027 30.9086C305.984 30.5324 306.852 29.9625 307.578 29.2349C308.305 28.5072 308.873 27.6373 309.247 26.6798C309.621 25.7223 309.794 24.6979 309.754 23.6706C309.754 21.6023 308.932 19.6187 307.469 18.1562C306.007 16.6937 304.023 15.8721 301.955 15.8721C299.887 15.8721 297.903 16.6937 296.441 18.1562C294.978 19.6187 294.156 21.6023 294.156 23.6706C294.122 24.7072 294.303 25.7396 294.688 26.7028C295.072 27.666 295.652 28.5392 296.391 29.2673C297.129 29.9954 298.011 30.5627 298.979 30.9334C299.948 31.3042 300.983 31.4703 302.019 31.4214Z" fill="url(#paint0_linear_302_1255)"/>
<path fill-rule="evenodd" clip-rule="evenodd" d="M39.0757 63.746C39.6565 63.5071 40.278 63.3828 40.9059 63.3799C41.5342 63.3803 42.1561 63.5047 42.7362 63.746C43.3287 63.9989 43.8685 64.3605 44.3277 64.8123L70.3494 91.6616C70.8501 92.1707 71.2335 92.7831 71.4729 93.4559C71.7122 94.1286 71.8016 94.8456 71.7349 95.5566C71.6682 96.2675 71.447 96.9553 71.0867 97.5718C70.7264 98.1884 70.2358 98.7188 69.6491 99.1259C68.857 99.6514 67.926 99.9285 66.9754 99.9217H14.8365C13.8879 99.9327 12.9592 99.649 12.1786 99.11C11.3964 98.5718 10.7925 97.8127 10.4439 96.9296C10.0841 96.0474 9.99002 95.0793 10.1733 94.1444C10.3635 93.2142 10.8165 92.3581 11.4784 91.6775L37.5478 64.7964C37.9856 64.3522 38.5042 63.9957 39.0757 63.746Z" fill="url(#paint1_linear_302_1255)"/>
<path fill-rule="evenodd" clip-rule="evenodd" d="M3.44435 28.3644C4.3128 28.0096 5.26653 27.9185 6.18644 28.1025C7.10634 28.2865 7.95166 28.7374 8.61685 29.3989L35.0205 55.5001C35.4684 55.9561 35.8202 56.4973 36.055 57.0917C36.3063 57.6692 36.4363 58.2921 36.437 58.9219C36.4214 60.188 35.9133 61.3982 35.0205 62.296L8.61685 88.3973C7.95166 89.0588 7.10634 89.5097 6.18644 89.6937C5.26653 89.8777 4.3128 89.7866 3.44435 89.4318C2.57956 89.066 1.83894 88.458 1.31169 87.6811C0.783575 86.8952 0.501039 85.9701 0.5 85.0232V32.773C0.501039 31.8261 0.783575 30.901 1.31169 30.1151C1.83479 29.3344 2.57666 28.7253 3.44435 28.3644Z" fill="url(#paint2_linear_302_1255)"/>
<path fill-rule="evenodd" clip-rule="evenodd" d="M14.8423 18.4502C13.9025 18.4497 12.9834 18.7265 12.2003 19.246C11.618 19.6392 11.1297 20.156 10.7702 20.7596C10.4106 21.3633 10.1887 22.0388 10.1203 22.7381C10.0519 23.4373 10.1387 24.1431 10.3744 24.8049C10.6102 25.4668 10.9891 26.0685 11.4841 26.5671L37.5535 53.0025C38.008 53.4561 38.5493 53.8134 39.1451 54.0529C39.7251 54.2942 40.3471 54.4186 40.9753 54.419C41.6033 54.4161 42.2248 54.2918 42.8056 54.0529C43.4 53.8181 43.9412 53.4663 44.3972 53.0184L70.4666 26.6148C71.1281 25.9463 71.5773 25.0973 71.7581 24.1743C71.9389 23.2514 71.8431 22.2956 71.4827 21.427C71.1223 20.5583 70.5134 19.8154 69.7324 19.2915C68.9513 18.7676 68.033 18.486 67.0925 18.482H14.9696L14.8423 18.4502Z" fill="url(#paint3_linear_302_1255)"/>
</g>
<defs>
<linearGradient id="paint0_linear_302_1255" x1="301.955" y1="16.1585" x2="301.955" y2="102.07" gradientUnits="userSpaceOnUse">
<stop stop-color="#936DD1"/>
<stop offset="1" stop-color="#7611A5"/>
</linearGradient>
<linearGradient id="paint1_linear_302_1255" x1="40.9219" y1="63.3799" x2="40.9219" y2="99.9535" gradientUnits="userSpaceOnUse">
<stop stop-color="#936DD1"/>
<stop offset="1" stop-color="#7611A5"/>
</linearGradient>
<linearGradient id="paint2_linear_302_1255" x1="18.4685" y1="28.0142" x2="18.4685" y2="89.7501" gradientUnits="userSpaceOnUse">
<stop stop-color="#936DD1"/>
<stop offset="1" stop-color="#7611A5"/>
</linearGradient>
<linearGradient id="paint3_linear_302_1255" x1="40.9276" y1="18.4184" x2="40.9276" y2="54.4031" gradientUnits="userSpaceOnUse">
<stop stop-color="#936DD1"/>
<stop offset="1" stop-color="#7611A5"/>
</linearGradient>
<clipPath id="clip0_302_1255">
<rect width="436" height="127" fill="white"/>
</clipPath>
</defs>
</svg>
