<svg width="100" height="100" viewBox="0 0 100 100" fill="none" xmlns="http://www.w3.org/2000/svg">
<path fill-rule="evenodd" clip-rule="evenodd" d="M83.1626 16.7004C74.3919 7.91931 62.7275 3.08132 50.3009 3.07617C24.6947 3.07617 3.85505 23.9153 3.84475 49.5283C3.84132 57.716 5.98022 65.7085 10.0457 72.7535L3.45508 96.8262L28.0822 90.366C34.868 94.0676 42.5075 96.0182 50.282 96.0205H50.3015C75.9048 96.0205 96.7467 75.1797 96.7565 49.5655C96.7616 37.1521 91.9339 25.4808 83.1626 16.7004ZM50.3009 88.175H50.2849C43.3566 88.1721 36.5617 86.3102 30.6325 82.7929L29.2232 81.9557L14.6091 85.7895L18.5098 71.541L17.5914 70.0802C13.7262 63.9324 11.6851 56.8268 11.6885 49.5312C11.6965 28.2423 29.0183 10.9222 50.3163 10.9222C60.6298 10.9257 70.3246 14.9471 77.6145 22.2456C84.9044 29.5441 88.9167 39.2452 88.9133 49.5626C88.9041 70.8532 71.5835 88.175 50.3009 88.175ZM71.4805 59.2564C70.32 58.675 64.6129 55.8678 63.5486 55.4798C62.4854 55.0924 61.7107 54.8996 60.9376 56.0612C60.1634 57.2227 57.9393 59.8377 57.2618 60.6119C56.5843 61.3867 55.9079 61.484 54.7469 60.9026C53.5859 60.3218 49.846 59.0956 45.412 55.1411C41.9616 52.0632 39.6321 48.262 38.9547 47.1004C38.2783 45.9377 38.9489 45.3701 39.4639 44.7315C40.7205 43.1711 41.9788 41.5352 42.3656 40.761C42.7529 39.9862 42.559 39.3082 42.2683 38.7274C41.9788 38.1466 39.6573 32.4331 38.6903 30.1083C37.7473 27.8458 36.7911 28.1513 36.0782 28.1158C35.4018 28.0821 34.6276 28.0752 33.8534 28.0752C33.0798 28.0752 31.8221 28.3653 30.7578 29.528C29.6941 30.6902 26.6957 33.498 26.6957 39.2115C26.6957 44.9249 30.8551 50.4444 31.4353 51.2192C32.0155 51.9939 39.6207 63.7184 51.2645 68.7458C54.034 69.9429 56.1957 70.6564 57.882 71.1914C60.6629 72.0749 63.1927 71.9501 65.1931 71.6515C67.4235 71.3179 72.0601 68.8431 73.0283 66.132C73.9953 63.4203 73.9953 61.0966 73.7046 60.6119C73.4151 60.1278 72.6409 59.8377 71.4805 59.2564Z" fill="#480866"/>
</svg>
